<svg xmlns="http://www.w3.org/2000/svg" xmlns:xlink="http://www.w3.org/1999/xlink" width="500" zoomAndPan="magnify" viewBox="0 0 375 374.999991" height="500" preserveAspectRatio="xMidYMid meet" version="1.2"><defs><clipPath id="ea31873343"><path d="M 49 18.75 L 326 18.75 L 326 99 L 49 99 Z M 49 18.75 "/></clipPath><clipPath id="2c6ae1aa50"><path d="M 18.75 121 L 356.25 121 L 356.25 356.25 L 18.75 356.25 Z M 18.75 121 "/></clipPath><clipPath id="d488564725"><path d="M 26 105 L 349 105 L 349 356.25 L 26 356.25 Z M 26 105 "/></clipPath></defs><g id="6705676891"><g clip-rule="nonzero" clip-path="url(#ea31873343)"><path style=" stroke:none;fill-rule:nonzero;fill:#ffe166;fill-opacity:1;" d="M 187.492188 50 C 229.285156 50 266.75 68.765625 291.988281 98.28125 C 302.824219 94.515625 314.117188 91.988281 325.75 90.796875 C 295.238281 47.257812 244.714844 18.757812 187.492188 18.757812 C 130.285156 18.757812 79.753906 47.257812 49.238281 90.796875 C 60.878906 91.988281 72.171875 94.515625 83.007812 98.28125 C 108.238281 68.765625 145.714844 50 187.492188 50 "/></g><g clip-rule="nonzero" clip-path="url(#2c6ae1aa50)"><path style=" stroke:none;fill-rule:nonzero;fill:#356419;fill-opacity:1;" d="M 342.765625 121.320312 C 342.089844 121.308594 341.433594 121.246094 340.761719 121.246094 C 330.21875 121.246094 319.957031 122.667969 310.082031 125.347656 C 319.597656 144.03125 325 165.140625 325 187.507812 C 325 263.316406 263.316406 324.992188 187.492188 324.992188 C 111.679688 324.992188 50 263.316406 50 187.507812 C 50 165.140625 55.402344 144.023438 64.910156 125.34375 C 55.042969 122.664062 44.773438 121.246094 34.234375 121.246094 C 33.566406 121.246094 32.902344 121.308594 32.234375 121.320312 C 23.5625 141.648438 18.75 164.007812 18.75 187.507812 C 18.75 280.691406 94.296875 356.25 187.492188 356.25 C 280.691406 356.25 356.242188 280.691406 356.242188 187.507812 C 356.242188 164.007812 351.433594 141.648438 342.765625 121.320312 "/></g><path style=" stroke:none;fill-rule:nonzero;fill:#ffe166;fill-opacity:1;" d="M 217.964844 123.4375 C 217.964844 140.269531 204.324219 153.910156 187.492188 153.910156 C 170.667969 153.910156 157.03125 140.269531 157.03125 123.4375 C 157.03125 106.613281 170.667969 92.972656 187.492188 92.972656 C 204.324219 92.972656 217.964844 106.613281 217.964844 123.4375 "/><g clip-rule="nonzero" clip-path="url(#d488564725)"><path style=" stroke:none;fill-rule:nonzero;fill:#356419;fill-opacity:1;" d="M 187.492188 356.25 C 195.550781 356.25 203.457031 355.652344 211.210938 354.558594 C 206.082031 337.484375 203.265625 319.136719 203.265625 299.996094 C 203.265625 210.105469 264.953125 136.984375 340.761719 136.984375 C 343.414062 136.984375 346.027344 137.09375 348.640625 137.273438 C 345.21875 126.265625 340.667969 115.765625 335.179688 105.851562 C 269.585938 108.308594 213.488281 153.871094 187.492188 218.734375 C 161.503906 153.871094 105.40625 108.308594 39.820312 105.851562 C 34.328125 115.765625 29.78125 126.265625 26.359375 137.273438 C 28.960938 137.09375 31.585938 136.984375 34.234375 136.984375 C 110.046875 136.984375 171.726562 210.105469 171.726562 299.996094 C 171.726562 319.136719 168.914062 337.484375 163.78125 354.558594 C 171.539062 355.652344 179.449219 356.25 187.492188 356.25 "/></g><path style=" stroke:none;fill-rule:nonzero;fill:#356419;fill-opacity:1;" d="M 187.492188 312.78125 L 187.492188 347.386719 C 271.785156 289.449219 295.0625 195.328125 295.0625 195.328125 C 259.105469 267.347656 204 303.230469 187.492188 312.78125 "/><path style=" stroke:none;fill-rule:nonzero;fill:#356419;fill-opacity:1;" d="M 187.492188 312.78125 L 187.492188 347.386719 C 103.214844 289.449219 79.933594 195.328125 79.933594 195.328125 C 115.890625 267.347656 170.992188 303.230469 187.492188 312.78125 "/></g></svg>